Exact Audio Copy V1.6 from 23. October 2020

EAC extraction logfile from 18. September 2021, 11:48

聖飢魔II / 空の雫 (BMG, BVDR-1213)

Used drive : _NEC DVD_RW ND-3550A Adapter: 1 ID: 0

Read mode : Secure
Utilize accurate stream : Yes
Defeat audio cache : Yes
Make use of C2 pointers : No

Read offset correction : 48
Overread into Lead-In and Lead-Out : No
Fill up missing offset samples with silence : Yes
Delete leading and trailing silent blocks : No
Null samples used in CRC calculations : Yes
Used interface : Native Win32 interface for Win NT & 2000

Used output format : User Defined Encoder
Selected bitrate : 1024 kBit/s
Quality : High
Add ID3 tag : No
Command line compressor : C:\Program Files\Exact Audio Copy\Flac\flac.exe
Additional command line options : -V -8 -T "Date=%year%" -T "Genre=%genre%" %source%


TOC of the extracted CD

Track | Start | Length | Start sector | End sector
---------------------------------------------------------
1 | 0:00.37 | 4:58.00 | 37 | 22386
2 | 4:58.37 | 4:46.00 | 22387 | 43836
3 | 9:44.37 | 4:55.00 | 43837 | 65961


Range status and errors

Selected range

Filename C:\Dkogure\聖飢魔II - 空の雫 (BMG, BVDR-1213).wav

Peak level 100.0 %
Extraction speed 3.4 X
Range quality 99.9 %
Copy CRC 8CB5CC70
Copy OK

No errors occurred


AccurateRip summary

Track 1 not present in database
Track 2 not present in database
Track 3 not present in database

None of the tracks are present in the AccurateRip database

End of status report

---- CUETools DB Plugin V2.1.6

[CTDB TOCID: nh8tQRWz5TKO_Z7CPWNNCPs3pHk-] found
Submit result: already submitted
Track | CTDB Status
1 | (2/2) Accurately ripped
2 | (2/2) Accurately ripped
3 | (1/2) Accurately ripped, or (1/2) differs in 1 samples @04:54:71


==== Log checksum 9187251CC813F706519EADCD5741514C2F7280BC14D54E2E74B2BC32B2D5C986 ====
